HIERARCHY
ROOT Hips
{
 OFFSET 0.000000 0.000000 0.000000
 CHANNELS 6 Xposition Yposition Zposition Yrotation Xrotation Zrotation
 JOINT Chest
 {
  OFFSET 0.000000 10.383400 0.001500
  CHANNELS 3 Yrotation Xrotation Zrotation
  JOINT Chest2
  {
   OFFSET 0.000000 10.418200 -0.003100
   CHANNELS 3 Yrotation Xrotation Zrotation
   JOINT Chest3
   {
    OFFSET 0.000000 10.375100 0.000000
    CHANNELS 3 Yrotation Xrotation Zrotation
    JOINT Chest4
    {
     OFFSET 0.000000 10.364600 0.000000
     CHANNELS 3 Yrotation Xrotation Zrotation
     JOINT Neck
     {
      OFFSET 0.000000 15.642200 0.000000
      CHANNELS 3 Yrotation Xrotation Zrotation
      JOINT Head
      {
       OFFSET 0.000000 9.697300 -0.006500
       CHANNELS 3 Yrotation Xrotation Zrotation
       End Site
       {
        OFFSET 0.000000 18.492200 -0.003400
       }
      }
     }
     JOINT RightCollar
     {
      OFFSET -3.166800 10.349300 0.000000
      CHANNELS 3 Yrotation Xrotation Zrotation
      JOINT RightShoulder
      {
       OFFSET -14.729700 0.000000 0.000000
       CHANNELS 3 Yrotation Xrotation Zrotation
       JOINT RightElbow
       {
        OFFSET 0.000000 -32.224300 0.000000
        CHANNELS 3 Yrotation Xrotation Zrotation
        JOINT RightWrist
        {
         OFFSET 0.000000 -26.084100 0.000000
         CHANNELS 3 Yrotation Xrotation Zrotation
         End Site
         {
          OFFSET 0.000000 -19.319400 0.000000
         }
        }
       }
      }
     }
     JOINT LeftCollar
     {
      OFFSET 3.166800 10.349300 0.000000
      CHANNELS 3 Yrotation Xrotation Zrotation
      JOINT LeftShoulder
      {
       OFFSET 14.729700 0.000000 0.000000
       CHANNELS 3 Yrotation Xrotation Zrotation
       JOINT LeftElbow
       {
        OFFSET 0.000000 -32.224300 0.000000
        CHANNELS 3 Yrotation Xrotation Zrotation
        JOINT LeftWrist
        {
         OFFSET 0.000000 -26.084100 0.000000
         CHANNELS 3 Yrotation Xrotation Zrotation
         End Site
         {
          OFFSET 0.000000 -19.319400 0.000000
         }
        }
       }
      }
     }
    }
   }
  }
 }
 JOINT RightHip
 {
  OFFSET -8.428900 -0.007500 -0.000800
  CHANNELS 3 Yrotation Xrotation Zrotation
  JOINT RightKnee
  {
   OFFSET 0.000000 -43.834600 0.000700
   CHANNELS 3 Yrotation Xrotation Zrotation
   JOINT RightAnkle
   {
    OFFSET 0.000000 -42.757000 0.001200
    CHANNELS 3 Yrotation Xrotation Zrotation
    JOINT RightToe
    {
     OFFSET 0.000000 -6.946900 15.649300
     CHANNELS 3 Yrotation Xrotation Zrotation
     End Site
     {
      OFFSET 0.000000 -1.580800 6.825800
     }
    }
   }
  }
 }
 JOINT LeftHip
 {
  OFFSET 8.428900 -0.007500 -0.000800
  CHANNELS 3 Yrotation Xrotation Zrotation
  JOINT LeftKnee
  {
   OFFSET 0.000000 -43.834600 0.000700
   CHANNELS 3 Yrotation Xrotation Zrotation
   JOINT LeftAnkle
   {
    OFFSET 0.000000 -42.757000 0.001200
    CHANNELS 3 Yrotation Xrotation Zrotation
    JOINT LeftToe
    {
     OFFSET 0.000000 -6.946900 15.649300
     CHANNELS 3 Yrotation Xrotation Zrotation
     End Site
     {
      OFFSET 0.000000 -1.580800 6.825800
     }
    }
   }
  }
 }
}
MOTION
Frames: 7
Frame Time: 0.008333
0.000000 93.354300 0.000000 0.000000 -5.767877 0.000000 0.000000 11.653817 0.000000 0.000000 -5.885947 0.000000 0.000000 -0.000000 0.000000 0.000000 -0.000000 0.000000 0.000000 12.528835 0.000000 0.000000 0.711642 0.000000 0.000000 -0.000000 0.000000 0.000000 0.000000 -90.000000 0.000000 -2.309062 0.000000 0.000000 2.309062 0.000000 0.000000 -0.000000 0.000000 0.000000 -0.000000 90.000000 0.000000 -2.309062 0.000000 0.000000 2.309062 0.000000 0.000000 8.520406 0.000000 0.000000 1.905762 0.000000 -0.000000 -4.658285 0.000000 0.000000 -0.000000 0.000000 0.000000 8.520406 0.000000 0.000000 1.905762 0.000000 -0.000000 -4.658285 0.000000 0.000000 -0.000000 0.000000
129.505020 126.964870 6.382763 -14.963837 -28.788291 -1.314543 -1.134502 17.716779 1.907469 -0.151166 1.941532 0.224866 -0.251252 3.231585 0.371902 -1.016765 15.490360 1.683835 2.069999 14.427649 -1.078505 4.306118 -8.946635 -2.825329 -3.895365 -4.758197 -4.923701 5.356514 -10.833434 -1.987135 32.283708 -49.271204 -9.741042 9.377467 9.568035 -19.545683 -0.475180 -6.442004 -3.351990 0.585286 -4.128743 3.321918 -38.663158 -56.416552 18.336385 -28.390257 5.877166 14.403863 -5.337148 -40.740858 1.553779 -21.182191 70.198432 -22.348660 1.204139 0.095029 6.733487 0.000080 -0.004746 0.000035 -3.397690 -33.885126 -7.008517 -0.634432 64.595669 2.200420 -13.474103 -0.794736 -4.922216 0.000251 0.000734 0.000111
129.505312 126.964895 6.382112 -14.961809 -28.790321 -1.312414 -1.135674 17.716058 1.904543 -0.151857 1.942596 0.224800 -0.245941 3.215846 0.371419 -1.021378 15.504807 1.683387 2.080877 14.422861 -1.083911 4.320525 -8.939745 -2.828261 -3.893432 -4.761377 -4.924471 5.359972 -10.843637 -1.981541 32.307639 -49.253700 -9.764405 9.374964 9.583841 -19.527457 -0.477502 -6.447835 -3.351390 0.589932 -4.141830 3.321827 -38.645950 -56.399900 18.313140 -28.399149 5.872774 14.399511 -5.335580 -40.739328 1.547344 -21.185937 70.199230 -22.353863 1.206790 0.093719 6.735944 -0.000783 -0.004049 -0.000348 -3.399270 -33.883549 -7.009794 -0.633304 64.596396 2.194884 -13.478233 -0.796694 -4.918827 -0.000527 0.000152 -0.000234
129.505519 126.964825 6.381074 -14.958888 -28.791368 -1.311512 -1.136867 17.710435 1.903783 -0.152071 1.941763 0.224578 -0.244069 3.213965 0.372523 -1.026427 15.502215 1.679899 2.088679 14.426200 -1.086769 4.336262 -8.933345 -2.836738 -3.877696 -4.761310 -4.927439 5.347021 -10.838598 -1.977741 32.357451 -49.248354 -9.797828 9.356223 9.601814 -19.518019 -0.476688 -6.446083 -3.349957 0.592468 -4.143468 3.318946 -38.649518 -56.390101 18.319288 -28.398504 5.869077 14.389538 -5.335708 -40.738358 1.543628 -21.184071 70.197925 -22.353448 1.201363 0.094390 6.738930 -0.001532 -0.003806 -0.000680 -3.400529 -33.882811 -7.014218 -0.629994 64.598357 2.191745 -13.464466 -0.798695 -4.914134 -0.000142 -0.000647 -0.000063
129.505877 126.964734 6.379899 -14.953836 -28.792294 -1.310922 -1.138958 17.703919 1.903794 -0.152218 1.940592 0.224550 -0.240740 3.214745 0.372098 -1.022076 15.489191 1.684622 2.102777 14.430676 -1.093585 4.374011 -8.924195 -2.858700 -3.876853 -4.763901 -4.935997 5.337990 -10.823916 -1.972709 32.380255 -49.242300 -9.811775 9.348938 9.613385 -19.509881 -0.485377 -6.436911 -3.352723 0.592050 -4.138015 3.316668 -38.654033 -56.382292 18.321803 -28.404338 5.871416 14.392091 -5.332362 -40.741288 1.535186 -21.186809 70.200605 -22.354464 1.199546 0.097731 6.741143 -0.002037 -0.006140 -0.000904 -3.402736 -33.881933 -7.021851 -0.623254 64.600097 2.193968 -13.445292 -0.799100 -4.915588 0.001200 -0.000947 0.000533
129.506067 126.965029 6.379285 -14.953511 -28.797712 -1.308091 -1.133706 17.701900 1.905196 -0.151799 1.940342 0.224620 -0.243761 3.218932 0.369942 -1.022995 15.490148 1.685266 2.104577 14.431212 -1.094429 4.403931 -8.924837 -2.873346 -3.874072 -4.769400 -4.938356 5.338366 -10.827476 -1.972482 32.389636 -49.234925 -9.814571 9.337721 9.620584 -19.509334 -0.482533 -6.445105 -3.352928 0.589798 -4.132931 3.315306 -38.657705 -56.375148 18.321780 -28.403354 5.868960 14.393893 -5.328413 -40.738323 1.527361 -21.176970 70.201866 -22.346285 1.205142 0.101552 6.743921 -0.001815 -0.007155 -0.000806 -3.397224 -33.875248 -7.025789 -0.641649 64.602326 2.170723 -13.437981 -0.799978 -4.907487 0.001254 -0.000780 0.000557
129.505729 126.965821 6.379398 -14.953589 -28.808832 -1.306746 -1.127039 17.707770 1.904956 -0.151186 1.940333 0.224680 -0.246943 3.221467 0.370338 -1.014831 15.487963 1.684822 2.112640 14.431843 -1.095693 4.419118 -8.925068 -2.878780 -3.876808 -4.770809 -4.935144 5.338485 -10.828125 -1.968307 32.410718 -49.227684 -9.831053 9.330523 9.636744 -19.497957 -0.484925 -6.450440 -3.351393 0.588601 -4.136715 3.313798 -38.654170 -56.361950 18.311576 -28.401104 5.868304 14.393624 -5.325317 -40.727554 1.525744 -21.171948 70.199897 -22.345628 1.204745 0.104240 6.748936 -0.000809 -0.007525 -0.000359 -3.390918 -33.860209 -7.026270 -0.654611 64.601329 2.154879 -13.445781 -0.800705 -4.906328 0.001390 0.001122 0.000617
